<svg xmlns="http://www.w3.org/2000/svg" viewBox="0 0 595.28 595.28"><defs><style>.cls-1{fill:#32b6be;}.cls-2{fill:#fff;}</style></defs><g id="Layer_2" data-name="Layer 2"><g id="Layer_1-2" data-name="Layer 1"><rect class="cls-1" width="595.28" height="595.28"/><path class="cls-2" d="M470,301.54a485.3,485.3,0,0,1-107.07-5.68l-.16,0c2.33-23.44,7.88-48.56,30.61-60.29,24.35-12.57,54.62-7,80.26-2.12,11.55,2.18,13.6-16,2.1-18.13-43-8.12-96.3-11.43-119.92,33.77-10.55,20.2-11.27,44.09-12.87,66.32-1.58,21.88-3.29,45.84-17.24,63.85-13.28,17.15-35.26,26.16-56.59,26.82-23.78.75-46.39-9.85-64.24-24.94-37.81-31.94-59.8-89.38-41.95-137.27,8.93-24,27.08-44.69,51.21-54,28.8-11.13,61.21-3.54,90.16,3,11.44,2.59,13.45-15.57,2.09-18.13-28-6.31-57.69-12.52-86.2-5.68-24.72,5.93-46.07,21.25-60.55,42.07-32.31,46.47-24.39,107.68,5.91,153,28.42,42.5,79.74,71.3,131,55.62,23-7,42.63-22.8,52.9-44.73,8.89-19,10.43-40.16,11.86-60.9a507.16,507.16,0,0,0,111.46,5.52C484.51,318.89,481.66,300.85,470,301.54Z"/><path class="cls-2" d="M211,238.58c4.42-2.19,12.5-4.33,15.53-8.36,1-1.38,1-2.9,1.13-4.53.42-5.42.61-9.82,2.23-15.1.48-1.54-1.84-2.6-2.32-1a37.53,37.53,0,0,0-1.07,4.77L218.9,208c-1.46-1.2-4.19-4.55-6.31-4.75-1.27-.12-1.74.52-2.57,1.3-2.47,2.33-4.38,6.26-6.31,9.07s-4.78,5.94-6.2,9.15c-.39.89-.83,1.44-.54,2.48.5,1.86,4,3.19,5.46,4.21l8.93,6.12-1.21.58C208.7,236.91,209.57,239.31,211,238.58Z"/><path class="cls-2" d="M190.23,278.1c3.38-3.59,10.21-8.41,11.66-13.23.49-1.66-.06-3.07-.51-4.64-1.49-5.24-2.85-9.43-3.16-14.94-.09-1.61-2.63-1.8-2.54-.17a39.72,39.72,0,0,0,.65,4.84L187,246.72c-1.79-.62-5.51-2.81-7.58-2.26-1.23.33-1.44,1.09-1.95,2.11-1.51,3-1.94,7.39-2.77,10.7s-2.42,7.23-2.63,10.73c-.06,1-.28,1.64.35,2.52,1.12,1.57,4.85,1.6,6.59,2l10.49,2.64-.92,1C187.47,277.35,189.11,279.29,190.23,278.1Z"/><path class="cls-2" d="M202.64,322.36c.28-4.92,2.43-13,.44-17.63-.68-1.58-2-2.31-3.37-3.23-4.5-3.05-8.23-5.4-12-9.42-1.1-1.18-3.17.3-2,1.5a37.11,37.11,0,0,0,3.61,3.29L180,300.38c-1.78.67-6,1.38-7.26,3.13-.73,1-.41,1.76-.14,2.87.79,3.3,3.26,6.91,4.74,10s2.79,7.09,4.88,9.92c.57.78.83,1.43,1.88,1.7,1.87.48,4.74-1.88,6.36-2.66l9.74-4.71-.09,1.33C200,323.56,202.54,324,202.64,322.36Z"/><path class="cls-2" d="M277.49,372.86c-3.77-3.19-8.93-9.76-13.82-10.95-1.68-.41-3.07.22-4.62.75-5.14,1.76-9.26,3.33-14.75,3.93-1.6.18-1.66,2.72,0,2.54a37,37,0,0,0,4.8-.9l-2.75,9.5c-.53,1.82-2.52,5.64-1.86,7.68.39,1.21,1.16,1.38,2.21,1.84,3.11,1.35,7.48,1.55,10.83,2.2s7.34,2,10.85,2.07c1,0,1.65.19,2.49-.48,1.51-1.2,1.35-4.92,1.7-6.68q1.05-5.31,2.09-10.62l1,.87C276.88,375.66,278.73,373.92,277.49,372.86Z"/><path class="cls-2" d="M232.64,357.68c-1.68-4.64-2.9-12.91-6.56-16.37-1.25-1.19-2.77-1.33-4.37-1.64-5.35-1-9.7-1.7-14.76-3.9-1.48-.65-2.79,1.53-1.29,2.19a38.76,38.76,0,0,0,4.61,1.6l-7.1,6.87c-1.36,1.32-5,3.66-5.43,5.75-.26,1.24.33,1.78,1,2.69,2,2.72,5.73,5.06,8.3,7.29s5.37,5.41,8.4,7.18c.83.49,1.34,1,2.41.82,1.9-.29,3.61-3.6,4.78-5l7.09-8.18c.14.42.29.84.44,1.26C230.73,359.81,233.2,359.21,232.64,357.68Z"/><path class="cls-2" d="M308.74,339.66c-4.49,2-12.64,3.87-15.82,7.78-1.09,1.34-1.11,2.86-1.3,4.49-.62,5.41-1,9.8-2.78,15-.53,1.52,1.74,2.67,2.28,1.12a37.4,37.4,0,0,0,1.25-4.72l7.39,6.56c1.42,1.26,4,4.7,6.14,5,1.26.16,1.75-.46,2.61-1.21,2.55-2.23,4.61-6.09,6.64-8.83s5-5.75,6.53-8.92c.42-.86.88-1.4.63-2.45-.44-1.88-3.86-3.34-5.31-4.4l-8.69-6.45,1.22-.54C311,341.41,310.23,339,308.74,339.66Z"/><path class="cls-2" d="M126.39,194c-4,2.89-11.6,6.35-13.92,10.82-.79,1.53-.51,3-.36,4.66.49,5.42,1,9.79.31,15.26-.21,1.6,2.25,2.26,2.46.64a36.75,36.75,0,0,0,.27-4.88l8.56,4.93c1.65.94,4.89,3.79,7,3.63,1.27-.09,1.63-.8,2.31-1.71,2.06-2.7,3.29-6.9,4.72-10s3.73-6.65,4.59-10.06c.24-.93.58-1.55.12-2.53-.81-1.75-4.46-2.48-6.09-3.24L126.57,197l1.09-.78C129,195.27,127.72,193.06,126.39,194Z"/><path class="cls-2" d="M164,155.65c-4.77,1.21-13.13,1.59-16.94,4.88-1.31,1.13-1.6,2.63-2.07,4.19-1.56,5.22-2.67,9.48-5.37,14.29-.79,1.41,1.24,2.93,2,1.51a39.13,39.13,0,0,0,2.05-4.43q3.08,3.87,6.13,7.75c1.17,1.49,3.13,5.34,5.17,6,1.21.39,1.8-.14,2.78-.73,2.91-1.75,5.61-5.19,8.09-7.52s5.92-4.79,8-7.64c.57-.78,1.11-1.23,1.06-2.31-.11-1.92-3.22-4-4.46-5.26l-7.42-7.87,1.3-.32C166,157.77,165.62,155.25,164,155.65Z"/><path class="cls-2" d="M419.68,268.33c-4.24-2.52-10.43-8.14-15.45-8.5-1.73-.13-3,.73-4.43,1.51-4.78,2.59-8.57,4.83-13.89,6.33-1.55.44-1.18,3,.39,2.51a35.77,35.77,0,0,0,4.59-1.69l-1.14,9.82c-.21,1.88-1.54,6-.55,7.88.58,1.13,1.38,1.18,2.48,1.45,3.3.81,7.64.28,11.05.38s7.57.78,11,.23c1-.15,1.65-.09,2.37-.89,1.29-1.44.51-5.08.56-6.87q.15-5.42.29-10.82l1.15.69C419.54,271.19,421.08,269.16,419.68,268.33Z"/><path class="cls-2" d="M469,271.08c-4.24-2.51-10.43-8.13-15.45-8.5-1.73-.12-3,.73-4.42,1.51-4.79,2.6-8.58,4.83-13.89,6.33-1.56.44-1.19,3,.39,2.52a39.55,39.55,0,0,0,4.58-1.69c-.38,3.27-.76,6.55-1.13,9.82-.22,1.88-1.55,6-.56,7.88.59,1.13,1.38,1.17,2.48,1.45,3.3.81,7.64.28,11,.37s7.58.79,11.05.24c.95-.16,1.65-.09,2.37-.9,1.29-1.43.51-5.07.56-6.87l.3-10.82c.37.24.76.47,1.14.7C468.84,274,470.37,271.92,469,271.08Z"/><path class="cls-2" d="M391.43,371.19c3-3.93,9.25-9.46,10.16-14.41.32-1.7-.39-3-1-4.56-2-5-3.85-9.06-4.75-14.51-.26-1.59-2.81-1.51-2.54.11a36.46,36.46,0,0,0,1.17,4.74l-9.63-2.22c-1.85-.43-5.78-2.2-7.78-1.43-1.18.46-1.31,1.24-1.71,2.31-1.17,3.18-1.13,7.55-1.6,10.93s-1.63,7.45-1.46,11c0,1-.1,1.65.62,2.46,1.28,1.44,5,1.07,6.77,1.32l10.71,1.49-.81,1.06C388.6,370.74,390.44,372.49,391.43,371.19Z"/></g></g></svg>