<svg xmlns="http://www.w3.org/2000/svg" viewBox="0 0 595.28 595.28"><defs><style>.cls-1{fill:#fff;}.cls-2{fill:#32b6be;}</style></defs><g id="Layer_2" data-name="Layer 2"><g id="Layer_1-2" data-name="Layer 1"><rect class="cls-1" width="595.28" height="595.28"/><path class="cls-2" d="M146.67,451.36a4.7,4.7,0,0,1,3.33,8c-.63.75-1.26,1.44-1.88,2.06q-5.46,5.1-14.45,5.1a21.67,21.67,0,1,1,0-43.34q9,0,14.45,5.05c.62.65,1.25,1.35,1.88,2.1a4.7,4.7,0,0,1-3.33,8q-1.95,0-4.29-2.21a12.31,12.31,0,0,0-21,8.71,12.28,12.28,0,0,0,21,8.66Q144.72,451.36,146.67,451.36Z"/><path class="cls-2" d="M170.87,466.53a16.22,16.22,0,1,1,11.5-4.75A15.68,15.68,0,0,1,170.87,466.53ZM176,455.38a7.22,7.22,0,1,0-5.11,2.12A6.94,6.94,0,0,0,176,455.38Z"/><path class="cls-2" d="M199.4,443.77V462a4.52,4.52,0,1,1-9,0V438.54a4.51,4.51,0,0,1,4.52-4.52,4.76,4.76,0,0,1,3.57,2,8.66,8.66,0,0,1,6-2,6.18,6.18,0,0,1,4.58,1.56,5.22,5.22,0,0,1,1.56,3.86,5.63,5.63,0,0,1-1.37,3.86,4.68,4.68,0,0,1-3.69,1.56,6.28,6.28,0,0,1-4-1.38C200.56,442.93,199.86,443,199.4,443.77Z"/><path class="cls-2" d="M229.74,466.53a16.22,16.22,0,1,1,11.5-4.75A15.68,15.68,0,0,1,229.74,466.53Zm5.11-11.15a7.22,7.22,0,1,0-5.11,2.12A6.94,6.94,0,0,0,234.85,455.38Z"/><path class="cls-2" d="M258.27,448.47V462a4.52,4.52,0,1,1-9,0V438.54a4.51,4.51,0,0,1,4.51-4.52,4.47,4.47,0,0,1,3.22,1.3l.14.22a14.26,14.26,0,0,1,6.58-1.52,14.37,14.37,0,0,1,14.44,14.45V462a4.52,4.52,0,1,1-9,0V448.47a5.42,5.42,0,1,0-10.83,0Z"/><path class="cls-2" d="M305.58,464.5a16.25,16.25,0,1,1,0-28.46,5.56,5.56,0,0,1,.61-.72,4.52,4.52,0,0,1,7.7,3.22V462a4.51,4.51,0,0,1-4.52,4.52,5,5,0,0,1-3.79-2Zm-2.84-9.12a7.22,7.22,0,1,0-5.11,2.12A6.95,6.95,0,0,0,302.74,455.38Z"/><path class="cls-2" d="M325.15,423.55h19.5a4.7,4.7,0,1,1,0,9.39H329.84v7.22H341a4.7,4.7,0,1,1,0,9.39h-11.2v12.28a4.7,4.7,0,0,1-9.39,0V428.24a4.69,4.69,0,0,1,4.7-4.69Z"/><path class="cls-2" d="M358,443.77V462a4.51,4.51,0,1,1-9,0V438.54A4.49,4.49,0,0,1,353.5,434a4.8,4.8,0,0,1,3.58,2,8.63,8.63,0,0,1,6-2,6.22,6.22,0,0,1,4.59,1.56,5.25,5.25,0,0,1,1.55,3.86,5.63,5.63,0,0,1-1.37,3.86,4.68,4.68,0,0,1-3.69,1.56,6.3,6.3,0,0,1-4-1.38C359.17,442.93,358.47,443,358,443.77Z"/><path class="cls-2" d="M380.48,422.39a4.72,4.72,0,1,1-3.32-1.37A4.57,4.57,0,0,1,380.48,422.39ZM381.67,462a4.52,4.52,0,1,1-9,0V438.54a4.52,4.52,0,1,1,9,0Z"/><path class="cls-2" d="M397.52,456.41a6.91,6.91,0,0,0,3.83,1.09,10.4,10.4,0,0,0,6-2.12c2-1.4,3.92-1.18,5.73.67s1.43,4.07-1.14,6.63-6.1,3.85-10.6,3.85a16.26,16.26,0,1,1,0-32.51q6.75,0,10.62,3.83a9.12,9.12,0,0,1,2.85,6.18,4,4,0,0,1-2.09,3.61Zm7.37-12.64a9.33,9.33,0,0,0-3.54-.72,6.92,6.92,0,0,0-5.09,2.1,7,7,0,0,0-2.13,4.87Z"/><path class="cls-2" d="M427.35,448.47V462a4.51,4.51,0,1,1-9,0V438.54a4.49,4.49,0,0,1,4.51-4.52,4.46,4.46,0,0,1,3.21,1.3l.15.22a14.19,14.19,0,0,1,6.57-1.52,14.37,14.37,0,0,1,14.45,14.45V462a4.52,4.52,0,1,1-9,0V448.47a5.42,5.42,0,1,0-10.84,0Z"/><path class="cls-2" d="M474.66,464.5a16.24,16.24,0,1,1-.72-28.85v-8.31a4.52,4.52,0,1,1,9,0V462a4.51,4.51,0,0,1-4.51,4.52,4.27,4.27,0,0,1-3.18-1.34A4.39,4.39,0,0,1,474.66,464.5Zm-2.83-9.12a7.22,7.22,0,1,0-5.11,2.12A6.94,6.94,0,0,0,471.83,455.38Z"/><path class="cls-2" d="M470,251.54a485.3,485.3,0,0,1-107.07-5.68l-.16,0c2.33-23.44,7.88-48.56,30.61-60.29,24.35-12.57,54.62-7,80.26-2.12,11.55,2.18,13.6-16,2.1-18.13-43-8.12-96.3-11.43-119.92,33.77-10.55,20.2-11.27,44.09-12.87,66.32-1.58,21.88-3.29,45.84-17.24,63.85-13.28,17.15-35.26,26.16-56.59,26.82-23.78.75-46.39-9.85-64.24-24.94-37.81-31.94-59.8-89.38-41.95-137.27,8.93-24,27.08-44.69,51.21-54,28.8-11.13,61.21-3.54,90.16,3,11.44,2.59,13.45-15.57,2.09-18.13-28-6.31-57.69-12.52-86.2-5.68-24.72,5.93-46.07,21.25-60.55,42.07-32.31,46.47-24.39,107.68,5.91,153,28.42,42.5,79.74,71.3,131,55.62,23-7,42.63-22.8,52.9-44.73,8.89-19,10.43-40.16,11.86-60.9a507.16,507.16,0,0,0,111.46,5.52C484.51,268.89,481.66,250.85,470,251.54Z"/><path class="cls-2" d="M211,188.58c4.42-2.19,12.5-4.33,15.53-8.36,1-1.38,1-2.9,1.13-4.53.42-5.42.61-9.82,2.23-15.1.48-1.54-1.84-2.6-2.32-1a37.53,37.53,0,0,0-1.07,4.77L218.9,158c-1.46-1.2-4.19-4.55-6.31-4.75-1.27-.12-1.74.52-2.57,1.3-2.47,2.33-4.38,6.26-6.31,9.07s-4.78,5.94-6.2,9.15c-.39.89-.83,1.44-.54,2.48.5,1.86,4,3.19,5.46,4.21l8.93,6.12-1.21.58C208.7,186.91,209.57,189.31,211,188.58Z"/><path class="cls-2" d="M190.23,228.1c3.38-3.59,10.21-8.41,11.66-13.23.49-1.66-.06-3.07-.51-4.64-1.49-5.24-2.85-9.43-3.16-14.94-.09-1.61-2.63-1.8-2.54-.17a39.72,39.72,0,0,0,.65,4.84L187,196.72c-1.79-.62-5.51-2.81-7.58-2.26-1.23.33-1.44,1.09-1.95,2.11-1.51,3-1.94,7.39-2.77,10.7s-2.42,7.23-2.63,10.73c-.06,1-.28,1.64.35,2.52,1.12,1.57,4.85,1.6,6.59,2l10.49,2.64-.92,1C187.47,227.35,189.11,229.29,190.23,228.1Z"/><path class="cls-2" d="M202.64,272.36c.28-4.92,2.43-13,.44-17.63-.68-1.58-2-2.31-3.37-3.23-4.5-3.05-8.23-5.4-12-9.42-1.1-1.18-3.17.3-2,1.5a37.11,37.11,0,0,0,3.61,3.29L180,250.38c-1.78.67-6,1.38-7.26,3.13-.73,1-.41,1.76-.14,2.87.79,3.3,3.26,6.91,4.74,10s2.79,7.09,4.88,9.92c.57.78.83,1.43,1.88,1.7,1.87.48,4.74-1.88,6.36-2.66l9.74-4.71-.09,1.33C200,273.56,202.54,274,202.64,272.36Z"/><path class="cls-2" d="M277.49,322.86c-3.77-3.19-8.93-9.76-13.82-10.95-1.68-.41-3.07.22-4.62.75-5.14,1.76-9.26,3.33-14.75,3.93-1.6.18-1.66,2.72,0,2.54a37,37,0,0,0,4.8-.9l-2.75,9.5c-.53,1.82-2.52,5.64-1.86,7.68.39,1.21,1.16,1.38,2.21,1.84,3.11,1.35,7.48,1.55,10.83,2.2s7.34,2,10.85,2.07c1,0,1.65.19,2.49-.48,1.51-1.2,1.35-4.92,1.7-6.68q1.05-5.31,2.09-10.62l1,.87C276.88,325.66,278.73,323.92,277.49,322.86Z"/><path class="cls-2" d="M232.64,307.68c-1.68-4.64-2.9-12.91-6.56-16.37-1.25-1.19-2.77-1.33-4.37-1.64-5.35-1-9.7-1.7-14.76-3.9-1.48-.65-2.79,1.53-1.29,2.19a38.76,38.76,0,0,0,4.61,1.6l-7.1,6.87c-1.36,1.32-5,3.66-5.43,5.75-.26,1.24.33,1.78,1,2.69,2,2.72,5.73,5.06,8.3,7.29s5.37,5.41,8.4,7.18c.83.49,1.34,1,2.41.82,1.9-.29,3.61-3.6,4.78-5l7.09-8.18c.14.42.29.84.44,1.26C230.73,309.81,233.2,309.21,232.64,307.68Z"/><path class="cls-2" d="M308.74,289.66c-4.49,2-12.64,3.87-15.82,7.78-1.09,1.34-1.11,2.86-1.3,4.49-.62,5.41-1,9.8-2.78,15-.53,1.52,1.74,2.67,2.28,1.12a37.4,37.4,0,0,0,1.25-4.72l7.39,6.56c1.42,1.26,4,4.7,6.14,5,1.26.16,1.75-.46,2.61-1.21,2.55-2.23,4.61-6.09,6.64-8.83s5-5.75,6.53-8.92c.42-.86.88-1.4.63-2.45-.44-1.88-3.86-3.34-5.31-4.4l-8.69-6.45,1.22-.54C311,291.41,310.23,289,308.74,289.66Z"/><path class="cls-2" d="M126.39,144c-4,2.89-11.6,6.35-13.92,10.82-.79,1.53-.51,3-.36,4.66.49,5.42,1,9.79.31,15.26-.21,1.6,2.25,2.26,2.46.64a36.75,36.75,0,0,0,.27-4.88l8.56,4.93c1.65.94,4.89,3.79,7,3.63,1.27-.09,1.63-.8,2.31-1.71,2.06-2.7,3.29-6.9,4.72-10s3.73-6.65,4.59-10.06c.24-.93.58-1.55.12-2.53-.81-1.75-4.46-2.48-6.09-3.24L126.57,147l1.09-.78C129,145.27,127.72,143.06,126.39,144Z"/><path class="cls-2" d="M164,105.65c-4.77,1.21-13.13,1.59-16.94,4.88-1.31,1.13-1.6,2.63-2.07,4.19-1.56,5.22-2.67,9.48-5.37,14.29-.79,1.41,1.24,2.93,2,1.51a39.13,39.13,0,0,0,2.05-4.43q3.08,3.87,6.13,7.75c1.17,1.49,3.13,5.34,5.17,6,1.21.39,1.8-.14,2.78-.73,2.91-1.75,5.61-5.19,8.09-7.52s5.92-4.79,8-7.64c.57-.78,1.11-1.23,1.06-2.31-.11-1.92-3.22-4-4.46-5.26l-7.42-7.87,1.3-.32C166,107.77,165.62,105.25,164,105.65Z"/><path class="cls-2" d="M419.68,218.33c-4.24-2.52-10.43-8.14-15.45-8.5-1.73-.13-3,.73-4.43,1.51-4.78,2.59-8.57,4.83-13.89,6.33-1.55.44-1.18,3,.39,2.51a35.77,35.77,0,0,0,4.59-1.69l-1.14,9.82c-.21,1.88-1.54,6-.55,7.88.58,1.13,1.38,1.18,2.48,1.45,3.3.81,7.64.28,11.05.38s7.57.78,11,.23c1-.15,1.65-.09,2.37-.89,1.29-1.44.51-5.08.56-6.87q.15-5.42.29-10.82l1.15.69C419.54,221.19,421.08,219.16,419.68,218.33Z"/><path class="cls-2" d="M469,221.08c-4.24-2.51-10.43-8.13-15.45-8.5-1.73-.12-3,.73-4.42,1.51-4.79,2.6-8.58,4.83-13.89,6.33-1.56.44-1.19,3,.39,2.52a39.55,39.55,0,0,0,4.58-1.69c-.38,3.27-.76,6.55-1.13,9.82-.22,1.88-1.55,6-.56,7.88.59,1.13,1.38,1.17,2.48,1.45,3.3.81,7.64.28,11,.37s7.58.79,11.05.24c.95-.16,1.65-.09,2.37-.9,1.29-1.43.51-5.07.56-6.87l.3-10.82c.37.24.76.47,1.14.7C468.84,224,470.37,221.92,469,221.08Z"/><path class="cls-2" d="M391.43,321.19c3-3.93,9.25-9.46,10.16-14.41.32-1.7-.39-3-1-4.56-2-5-3.85-9.06-4.75-14.51-.26-1.59-2.81-1.51-2.54.11a36.46,36.46,0,0,0,1.17,4.74l-9.63-2.22c-1.85-.43-5.78-2.2-7.78-1.43-1.18.46-1.31,1.24-1.71,2.31-1.17,3.18-1.13,7.55-1.6,10.93s-1.63,7.45-1.46,11c0,1-.1,1.65.62,2.46,1.28,1.44,5,1.07,6.77,1.32l10.71,1.49-.81,1.06C388.6,320.74,390.44,322.49,391.43,321.19Z"/></g></g></svg>