<svg xmlns="http://www.w3.org/2000/svg" viewBox="0 0 175.09 175.09"><defs><style>.cls-1{fill:#95d1d7;}.cls-2{fill:#fff;}</style></defs><g id="Layer_2" data-name="Layer 2"><g id="Layer_1-2" data-name="Layer 1"><circle class="cls-1" cx="87.54" cy="87.54" r="87.54"/><path class="cls-2" d="M58.82,87.13a55,55,0,0,1,25.47,9.58c3.26,2.24,6.34-3.08,3.1-5.31A61.24,61.24,0,0,0,58.82,81c-3.92-.42-3.89,5.72,0,6.14Z"/><path class="cls-2" d="M76.74,76.17A62.82,62.82,0,0,1,64.5,97.32c-2.59,3,1.74,7.33,4.35,4.34A70.74,70.74,0,0,0,82.66,77.8C84,74.05,78,72.44,76.74,76.17Z"/><path class="cls-2" d="M146.31,92a165.52,165.52,0,0,1-36.54-1.66h0c.74-8,2.56-16.58,10.29-20.64,8.27-4.35,18.61-2.51,27.37-.92,3.94.71,4.59-5.49.66-6.2-14.69-2.66-32.87-3.65-40.81,11.83C103.68,81.28,103.5,89.43,103,97s-1,15.65-5.72,21.83c-4.48,5.88-12,9-19.23,9.29-8.11.31-15.85-3.24-22-8.34-13-10.8-20.62-30.34-14.65-46.72,3-8.2,9.12-15.31,17.32-18.55,9.8-3.87,20.87-1.36,30.76.79,3.91.85,4.55-5.35.67-6.19C80.62,47,70.47,45,60.77,47.4A35.42,35.42,0,0,0,40.22,61.9c-10.9,15.94-8,36.79,2.41,52.17,9.8,14.43,27.38,24.12,44.83,18.64a29.12,29.12,0,0,0,17.93-15.39c3-6.49,3.45-13.73,3.89-20.8a172.84,172.84,0,0,0,38,1.59C151.3,97.85,150.28,91.7,146.31,92Z"/></g></g></svg>