<svg xmlns="http://www.w3.org/2000/svg" viewBox="0 0 175.09 175.09"><defs><style>.cls-1{fill:#f08d88;}.cls-2{fill:#f9d8bf;}</style></defs><g id="Layer_2" data-name="Layer 2"><g id="Layer_1-2" data-name="Layer 1"><circle class="cls-1" cx="87.54" cy="87.54" r="87.54"/><path class="cls-2" d="M130.73,81.65l-15.84-.38c-.91,0-5.77.51-7.44,0,.85-.26.35-5.34.36-6.35l.27-33.3c0-1.75-1.63-3.73-3.52-3.52A313.07,313.07,0,0,1,65.12,40a3.24,3.24,0,0,0-3.39,3.31,3,3,0,0,0-1.51,2.92q.41,9.84.8,19.7c.1,2.34,2.31,18.37.8,19.7-1.13,1-4.51.32-6.07.44a56.27,56.27,0,0,0-7.85,1.15A58.25,58.25,0,0,0,34,92.41c-1.85.94-2.47,4.17-.71,5.53a312.09,312.09,0,0,0,63.82,38.6c1.66.75,3.88.57,4.82-1.26a264.27,264.27,0,0,1,31.31-47.61C135.13,85.36,134,81.73,130.73,81.65ZM97.32,128.9A305.7,305.7,0,0,1,42.6,96.24,49.12,49.12,0,0,1,58.08,93c3.81-.18,8.25.25,10.22-3.83,2.32-4.79.16-13.81-.06-19Q67.78,58.59,67.3,47A310.78,310.78,0,0,0,101,45.53l-.15,18.79c0,5.82-1.65,14,.08,19.58.94,3,3.16,3.87,6,4.24a124.53,124.53,0,0,0,16.45.54A272.74,272.74,0,0,0,97.32,128.9Z"/></g></g></svg>