<svg xmlns="http://www.w3.org/2000/svg" viewBox="0 0 175.09 175.09"><defs><style>.cls-1{fill:#ffe288;}.cls-2{fill:#f08d88;}</style></defs><g id="Layer_2" data-name="Layer 2"><g id="Layer_1-2" data-name="Layer 1"><circle class="cls-1" cx="87.54" cy="87.54" r="87.54"/><path class="cls-2" d="M140.39,104.21A150.59,150.59,0,0,0,138.77,87q-1-7.48-2.47-14.88c-1-5-1.72-10.74-3.76-15.38a6.38,6.38,0,0,0-5.87-4.13c-5.54-.51-11.6.43-17.16.66L71.93,54.81c-11.79.49-23.74.52-35.18,3.74-2.2.62-2.21,3.14-.74,4.43-.2,11.28-.19,22.55.1,33.82.17,7-.82,17.45,7.78,19.94,4.12,1.2,8.85.83,13.09.93q8.76.21,17.53.09,17.05-.24,34.05-1.73,8.25-.73,16.47-1.75c4-.49,9.81-.22,13-2.9C140.22,109.55,140.44,106.9,140.39,104.21ZM90.72,59l26.7-1.1c1.25-.06,2.71-.26,4.13-.35L102.89,73.21l-9.11,7.62C92,82.36,89.53,85.27,87.3,86.1c-3,1.12-5.35-.06-8-1.38A247.55,247.55,0,0,1,43.11,62.15C58.5,58.88,75.17,59.68,90.72,59ZM125,109.28q-7.25.9-14.53,1.57A461.84,461.84,0,0,1,57,112.67c-5.13-.13-12.73,1-15.15-4.57-1.67-3.87-.7-10.06-.79-14.24-.2-9-.21-18.08-.08-27.12,6.06,4.47,12.28,8.71,18.7,12.65q6.11,3.75,12.39,7.15c3.51,1.89,7.46,4.63,11.49,5.22,3.13.45,5.6-.75,8-2.61,4.07-3.11,7.89-6.58,11.81-9.86L127.5,59.11a9.34,9.34,0,0,1,1.64,4q1.65,6.52,2.89,13.14a202.23,202.23,0,0,1,3.31,27C135.65,109.35,129.64,108.71,125,109.28Z"/></g></g></svg>