<svg xmlns="http://www.w3.org/2000/svg" viewBox="0 0 140.06 140.06"><defs><style>.cls-1{fill:#70b5e5;}.cls-2{fill:#fff;}</style></defs><g id="Layer_2" data-name="Layer 2"><g id="Layer_1-2" data-name="Layer 1"><circle class="cls-1" cx="70.03" cy="70.03" r="70.03"/><path class="cls-2" d="M57.09,44.32a15.23,15.23,0,0,1,17.44-4.48c6.07,2.63,9.61,10,8.29,16.41-1.67,8.11-10.74,7.63-16.18,12.22a21.4,21.4,0,0,0-7,20.21c1.23,6.85,11.83,4.71,10.6-2.15A10.23,10.23,0,0,1,74.56,76c3.93-2.5,8.71-2.93,12.36-6,7.39-6.31,8.4-17.36,5.12-26C84.9,25.2,60.13,23.06,48.15,38.24c-4.32,5.47,4.65,11.52,8.94,6.08Z"/><path class="cls-2" d="M62.81,106.08c2,3.5,7.79,1.52,6.65-2.59-1.24-4.46-7.21-3.38-8.35.53-1.09,3.72,2.45,9.29,6.69,8.26,3.7-.9,5.66-6.72,4.06-9.9a6.46,6.46,0,0,0-9.34-2.29,7.36,7.36,0,0,0-1.66,10c2.29,3.29,7.13,4.23,9.9,1a5.49,5.49,0,0,0-2.36-8.89c-1.89-.71-4.4-1-6.05.4a5.19,5.19,0,0,0-1.2,6.05c2,4.44,7.8,3.67,9.73-.34,1.21-2.51-2.89-3.92-4.09-1.44-.43.92-2.06.54-1.8-.54.21-.88,2.53-.09,2.84.64.42,1-.75,1.92-1.64,1.83a2.9,2.9,0,0,1-.72-5.41,2.1,2.1,0,0,1,2.63,1.26c.18.72-.58,3.41-1.5,3.37-.65,0-1.32-1.75-1.35-2.29,0-.7.6-3,1.44-1.54-1.39-2.4-5.28-.5-3.88,1.92Z"/></g></g></svg>